<svg xmlns="http://www.w3.org/2000/svg" width="9.857" height="13.223" viewBox="0 0 9.857 13.223">
  <path id="company" d="M55.456,12.37h-.77V1.92a.41.41,0,0,0-.39-.427H51.368V.427A.41.41,0,0,0,50.977,0H48.269a.41.41,0,0,0-.39.427V1.493h-.317a.41.41,0,0,0-.39.427V12.37H46.4a.428.428,0,0,0-.011.853h2.781a.2.2,0,0,0,.2-.213V10.557h-.16A.428.428,0,0,1,49.2,9.7H52.65a.428.428,0,0,1,.011.853H52.49V13.01a.2.2,0,0,0,.2.213h2.781a.428.428,0,0,0-.011-.853ZM49.977,8.824h-.439a.428.428,0,0,1,0-.853h.439a.428.428,0,0,1,0,.853Zm0-1.6h-.439a.428.428,0,0,1,0-.853h.439a.428.428,0,0,1,0,.853Zm0-1.6h-.439a.428.428,0,0,1,0-.853h.439a.428.428,0,0,1,0,.853Zm0-1.6h-.439a.428.428,0,0,1,0-.853h.439a.428.428,0,0,1,0,.853Zm2.318,4.8h-.439a.428.428,0,0,1,0-.853h.439a.428.428,0,0,1,0,.853Zm0-1.6h-.439a.428.428,0,0,1,0-.853h.439a.428.428,0,0,1,0,.853Zm0-1.6h-.439a.428.428,0,0,1,0-.853h.439a.428.428,0,0,1,0,.853Zm0-1.6h-.439a.428.428,0,0,1,0-.853h.439a.428.428,0,0,1,0,.853ZM50.148,13.01V10.771a.2.2,0,0,1,.2-.213h1.171a.2.2,0,0,1,.2.213V13.01a.2.2,0,0,1-.2.213H50.343A.2.2,0,0,1,50.148,13.01Z" transform="translate(-46)" fill="#555"/>
</svg>
