<svg xmlns="http://www.w3.org/2000/svg" width="17.716" height="9.342" viewBox="0 0 17.716 9.342">
  <g id="eye" transform="translate(0 -121)">
    <g id="Group_40" data-name="Group 40" transform="translate(-0.001 121)">
      <g id="Group_39" data-name="Group 39" transform="translate(0)">
        <path id="Path_418" data-name="Path 418" d="M17.583,125.325c-.158-.176-3.962-4.325-8.726-4.325S.29,125.149.132,125.325a.519.519,0,0,0,0,.692c.158.176,3.962,4.325,8.726,4.325s8.567-4.149,8.726-4.325A.519.519,0,0,0,17.583,125.325ZM8.857,129.3a3.633,3.633,0,1,1,3.633-3.633A3.638,3.638,0,0,1,8.857,129.3Z" transform="translate(0.001 -121)" fill="#707070"/>
      </g>
    </g>
    <g id="Group_42" data-name="Group 42" transform="translate(6.262 123.076)">
      <g id="Group_41" data-name="Group 41" transform="translate(0 0)">
        <path id="Path_419" data-name="Path 419" d="M184.114,182.557a1.552,1.552,0,0,1,.654-1.264A2.561,2.561,0,0,0,183.6,181a2.6,2.6,0,1,0,2.551,3.033A1.548,1.548,0,0,1,184.114,182.557Z" transform="translate(-181 -181)" fill="#707070"/>
      </g>
    </g>
  </g>
</svg>
