<svg xmlns="http://www.w3.org/2000/svg" width="9.857" height="9.857" viewBox="0 0 9.857 9.857">
  <g id="globe" transform="translate(-16 -15.998)">
    <path id="Path_407" data-name="Path 407" d="M19.749,47.512l.411.052a.266.266,0,0,0,.265-.126.751.751,0,0,1,.745-.368l.18.023a.263.263,0,0,0,.24-.1l.158-.205a.432.432,0,0,0,.013-.512l-.341-.492a1.486,1.486,0,0,0-.467-.433,1.681,1.681,0,0,1-.16-.107l-.6-.452a4.948,4.948,0,0,0-1.14.852,4.891,4.891,0,0,0-1.41,2.906.9.9,0,0,1,.945.432.708.708,0,0,0,.126.159l.358.337a.435.435,0,0,0,.183.1l.042.011a.831.831,0,0,1,.58.577l.192.692a.571.571,0,0,0,.1.195l.581.762a.84.84,0,0,1,.16.37l.158.947a.038.038,0,0,0,.011.023.031.031,0,0,0,.033,0,.164.164,0,0,0,.1-.137,1.06,1.06,0,0,1,.246-.582l.168-.2a.249.249,0,0,0,.047-.086l.173-.561a.934.934,0,0,1,.326-.468l.515-.4a.082.082,0,0,0,.032-.05.072.072,0,0,0-.016-.059l-.343-.4c-.022-.026-.044-.053-.064-.081l-.262-.365a.653.653,0,0,0-.539-.287.234.234,0,0,1-.126-.033l-.535-.321a.418.418,0,0,0-.41-.01l-.282.151a.659.659,0,0,1-.865-.228L19,48.613a.7.7,0,0,1,.012-.765A.773.773,0,0,1,19.749,47.512Z" transform="translate(-1.608 -28.204)" fill="#555"/>
    <path id="Path_408" data-name="Path 408" d="M25.474,22.421a.742.742,0,0,0-.651.445l-.031.069a.765.765,0,0,1-.7.455h-.519a.337.337,0,0,1-.341-.3l-.02-.2a.737.737,0,0,0-.334-.551A.394.394,0,0,1,22.694,22v-.208a.506.506,0,0,1,.168-.382l.882-.783a.771.771,0,0,0,.227-.8.788.788,0,0,0-.657-.553l-.089-.011a.54.54,0,0,1-.341-.18.349.349,0,0,1-.042-.4l.186-.318a6.477,6.477,0,0,1,.816-1.106l.14-.2a4.938,4.938,0,0,0-5.2-.574l.521.392a1.481,1.481,0,0,0,.141.094,1.692,1.692,0,0,1,.532.493l.341.492a.637.637,0,0,1-.019.755l-.158.205a.469.469,0,0,1-.429.178l-.18-.023a.546.546,0,0,0-.542.268.47.47,0,0,1-.469.226l-.411-.052a.568.568,0,0,0-.545.246.493.493,0,0,0-.008.54l.274.433a.453.453,0,0,0,.595.156l.282-.151a.624.624,0,0,1,.613.015l.535.321a.027.027,0,0,0,.016,0,.857.857,0,0,1,.711.372l.262.365c.017.023.035.046.053.068l.343.4a.279.279,0,0,1,.063.225.284.284,0,0,1-.11.18l-.515.4a.73.73,0,0,0-.254.366l-.173.561a.453.453,0,0,1-.085.157l-.168.2a.855.855,0,0,0-.2.469.369.369,0,0,1-.225.308.237.237,0,0,1-.326-.184l-.158-.947a.634.634,0,0,0-.121-.279l-.581-.762a.776.776,0,0,1-.131-.264l-.192-.692a.625.625,0,0,0-.436-.434l-.042-.011a.641.641,0,0,1-.27-.151l-.358-.337a.914.914,0,0,1-.163-.2.7.7,0,0,0-.733-.333l-.055.011q-.013.182-.013.366a4.93,4.93,0,0,0,9.629,1.488l-.033,0Z" transform="translate(0 0)" fill="#555"/>
    <path id="Path_409" data-name="Path 409" d="M353.239,74.049l-.136.189-.008.01a6.272,6.272,0,0,0-.794,1.075l-.186.317a.145.145,0,0,0,.019.164.335.335,0,0,0,.211.112l.09.011a.994.994,0,0,1,.829.7.976.976,0,0,1-.286,1.013l-.884.783a.3.3,0,0,0-.1.228v.208a.188.188,0,0,0,.085.162.936.936,0,0,1,.425.7l.021.2a.134.134,0,0,0,.138.12h.519a.56.56,0,0,0,.517-.333l.031-.066a.947.947,0,0,1,.829-.569l.122-.006.03,0,.075-.008a4.954,4.954,0,0,0,.166-1.276A4.9,4.9,0,0,0,353.51,74.3Q353.378,74.169,353.239,74.049Z" transform="translate(-329.096 -56.859)" fill="#555"/>
  </g>
</svg>
