<svg id="instagram-sketched" xmlns="http://www.w3.org/2000/svg" width="9.73" height="9.73" viewBox="0 0 9.73 9.73">
  <path id="Path_410" data-name="Path 410" d="M96.416,91H91.855a.856.856,0,0,0-.855.855v4.561a.856.856,0,0,0,.855.855h4.561a.856.856,0,0,0,.855-.855V91.855A.856.856,0,0,0,96.416,91Zm-2.281,5.131a2,2,0,1,1,2-2A2,2,0,0,1,94.136,96.131Zm2-3.421a.57.57,0,1,1,.57-.57A.571.571,0,0,1,96.131,92.71Zm0,0" transform="translate(-89.271 -89.271)" fill="#555"/>
  <path id="Path_411" data-name="Path 411" d="M182.425,181a1.425,1.425,0,1,0,1.425,1.425A1.427,1.427,0,0,0,182.425,181Zm0,0" transform="translate(-177.56 -177.56)" fill="#555"/>
  <path id="Path_412" data-name="Path 412" d="M8.286,0H1.444A1.46,1.46,0,0,0,0,1.444V8.286A1.46,1.46,0,0,0,1.444,9.73H8.286A1.46,1.46,0,0,0,9.73,8.286V1.444A1.46,1.46,0,0,0,8.286,0Zm.285,7.146A1.427,1.427,0,0,1,7.146,8.571H2.585A1.427,1.427,0,0,1,1.159,7.146V2.585A1.427,1.427,0,0,1,2.585,1.159H7.146A1.427,1.427,0,0,1,8.571,2.585Zm0,0" fill="#555"/>
</svg>
