<svg xmlns="http://www.w3.org/2000/svg" width="101.841" height="102.726" viewBox="0 0 101.841 102.726">
  <g id="Group_7" data-name="Group 7" transform="translate(-113.783 -107.852)">
    <g id="Group_2" data-name="Group 2" transform="translate(113.783 107.852)">
      <g id="Group_1" data-name="Group 1" transform="translate(0 0)">
        <path id="Path_1" data-name="Path 1" d="M113.783,833.185l.056-.359,2.242.348.479-3.091-2.242-.347.056-.359,4.829.748-.056.359-2.263-.351-.479,3.091,2.263.351-.056.359Z" transform="translate(-113.783 -787.9)" fill="#1a1818"/>
        <path id="Path_2" data-name="Path 2" d="M145.607,722.159a2.376,2.376,0,0,1-1.225,1.5,2.452,2.452,0,0,1-.906.252,2.638,2.638,0,0,1-.967-.1l-.013,0a2.62,2.62,0,0,1-.872-.44,2.539,2.539,0,0,1-.634-.7,2.37,2.37,0,0,1-.316-.9,2.454,2.454,0,0,1,1.311-2.527,2.461,2.461,0,0,1,.906-.252,2.646,2.646,0,0,1,.967.1.009.009,0,0,1,.013,0,2.623,2.623,0,0,1,.872.44,2.54,2.54,0,0,1,.634.7,2.359,2.359,0,0,1,.315.9A2.431,2.431,0,0,1,145.607,722.159Zm-.311-.105a2,2,0,0,0-.2-1.61,2.143,2.143,0,0,0-.547-.607,2.349,2.349,0,0,0-.775-.386l-.013,0a2.323,2.323,0,0,0-.865-.089,2.182,2.182,0,0,0-.791.22,2.049,2.049,0,0,0-.637.5,2.039,2.039,0,0,0-.206,2.365,2.14,2.14,0,0,0,.547.607,2.348,2.348,0,0,0,.775.386l.013,0a2.33,2.33,0,0,0,.865.088,2.179,2.179,0,0,0,.791-.22,2.04,2.04,0,0,0,.637-.5A2,2,0,0,0,145.3,722.054Z" transform="translate(-139.106 -683.843)" fill="#1a1818"/>
        <path id="Path_3" data-name="Path 3" d="M169.7,603.016l.14-.312,3.44-.607-1.834-2.973.14-.312,4.459,2-.149.331-3.873-1.737,1.776,2.916-.011.026-3.359.613,3.873,1.738-.143.318Z" transform="translate(-166.489 -570.589)" fill="#1a1818"/>
        <path id="Path_4" data-name="Path 4" d="M222.914,512.887l1.805-2.971.28.17-1.617,2.661,1.653,1,1.454-2.393.28.17-1.454,2.393L227,514.944l1.635-2.691.28.17-1.823,3Z" transform="translate(-216.641 -486.803)" fill="#1a1818"/>
        <path id="Path_5" data-name="Path 5" d="M275.646,419.2l.212-.268,3.484.256-1.049-3.332.212-.268,3.832,3.033-.225.285-3.328-2.634,1.006,3.263-.017.022-3.406-.23,3.328,2.635-.217.274Z" transform="translate(-266.341 -397.895)" fill="#1a1818"/>
        <path id="Path_6" data-name="Path 6" d="M377.245,357.052l.251-.243,5.059,1.953-.286.277-1.4-.551-2.072,2.006.505,1.415-.271.262Zm3.287,1.307-2.89-1.138,1.039,2.93Z" transform="translate(-362.1 -342.498)" fill="#1a1818"/>
        <path id="Path_7" data-name="Path 7" d="M437.615,281.645l1.3-.976a2.892,2.892,0,0,1,.952-.482,2.484,2.484,0,0,1,.967-.084,2.285,2.285,0,0,1,.89.3,2.427,2.427,0,0,1,.727.655l.008.011a2.452,2.452,0,0,1,.427.884,2.274,2.274,0,0,1,.038.94,2.526,2.526,0,0,1-.349.908,2.84,2.84,0,0,1-.727.781l-1.3.976Zm4.037,2.671a2.465,2.465,0,0,0,.638-.685,2.067,2.067,0,0,0,.29-.777,2,2,0,0,0-.045-.8,2.141,2.141,0,0,0-.368-.753l-.008-.011a2.148,2.148,0,0,0-.617-.561,2.029,2.029,0,0,0-.758-.272,2.086,2.086,0,0,0-.832.055,2.42,2.42,0,0,0-.838.418l-1.011.758,2.538,3.385Z" transform="translate(-419 -270.186)" fill="#1a1818"/>
        <path id="Path_8" data-name="Path 8" d="M528.618,213.886l3.007-1.746.165.284-2.693,1.563.971,1.672,2.421-1.406.165.284-2.421,1.406.989,1.7,2.723-1.581.165.284-3.037,1.763Z" transform="translate(-504.771 -206.145)" fill="#1a1818"/>
        <path id="Path_9" data-name="Path 9" d="M659.146,161.243l1.887-.7a2.207,2.207,0,0,1,.736-.151,1.388,1.388,0,0,1,.6.114,1.049,1.049,0,0,1,.563.611l0,.013a1.215,1.215,0,0,1,.086.438,1.147,1.147,0,0,1-.065.375,1.168,1.168,0,0,1-.169.313,2.142,2.142,0,0,1-.222.251,2.432,2.432,0,0,1,.444-.006,1.3,1.3,0,0,1,.413.1,1.118,1.118,0,0,1,.342.229,1.024,1.024,0,0,1,.24.383l0,.013a1.207,1.207,0,0,1,.076.563,1.181,1.181,0,0,1-.187.516,1.734,1.734,0,0,1-.423.441,2.549,2.549,0,0,1-.64.339l-1.985.74Zm2.642,1.429a1.8,1.8,0,0,0,.448-.238,1.212,1.212,0,0,0,.305-.32.882.882,0,0,0,.135-.388.967.967,0,0,0-.064-.441l0-.013a.8.8,0,0,0-.524-.506,1.431,1.431,0,0,0-.938.083l-1.544.576.676,1.812Zm.953,2.1a1.661,1.661,0,0,0,.841-.6.859.859,0,0,0,.091-.815l0-.013a.794.794,0,0,0-.6-.527,2.029,2.029,0,0,0-1.124.154l-1.55.578.688,1.845Z" transform="translate(-627.796 -157.367)" fill="#1a1818"/>
        <path id="Path_10" data-name="Path 10" d="M771.771,131.457l.339-.081,3.356,4.26-.387.092-.922-1.187-2.8.669-.287,1.475-.367.087Zm2.161,2.8-1.906-2.452-.6,3.05Z" transform="translate(-732.936 -130.024)" fill="#1a1818"/>
        <path id="Path_11" data-name="Path 11" d="M868.506,110.172l.361-.041.36,3.191,2.734-3.54.493-.055-1.881,2.383,2.519,2.463-.472.053-2.275-2.231-1.069,1.357.139,1.235-.361.041Z" transform="translate(-825.121 -109.619)" fill="#1a1818"/>
        <path id="Path_12" data-name="Path 12" d="M969.633,107.908l3.476-.056.005.328-3.113.05.031,1.934,2.8-.045.005.328-2.8.045.032,1.969,3.148-.051.005.328-3.511.057Z" transform="translate(-920.435 -107.852)" fill="#1a1818"/>
        <path id="Path_13" data-name="Path 13" d="M1060.027,110.447l2.04.228a2.306,2.306,0,0,1,.783.218,1.564,1.564,0,0,1,.53.414,1.261,1.261,0,0,1,.225.436,1.285,1.285,0,0,1,.042.507l0,.014a1.324,1.324,0,0,1-.169.533,1.242,1.242,0,0,1-.344.38,1.542,1.542,0,0,1-.482.231,2.294,2.294,0,0,1-.582.086l1.371,2.254-.458-.051-1.322-2.185-.014,0-1.575-.176-.225,2.012-.361-.04Zm1.717,2.742a2.01,2.01,0,0,0,.574-.013,1.372,1.372,0,0,0,.472-.169,1.047,1.047,0,0,0,.334-.315,1,1,0,0,0,.16-.458l0-.014a.943.943,0,0,0-.277-.82,1.647,1.647,0,0,0-1-.4l-1.658-.185-.245,2.193Z" transform="translate(-1005.121 -110.298)" fill="#1a1818"/>
        <path id="Path_14" data-name="Path 14" d="M1165.273,125.865l-1.372-3.35.442.1,1.188,2.971,2.383-2.142.422.1-2.707,2.4-.439,1.891-.354-.082Z" transform="translate(-1103.535 -121.672)" fill="#1a1818"/>
        <path id="Path_15" data-name="Path 15" d="M1283.258,178.794l.321.138.146,5.421-.366-.157-.03-1.5-2.649-1.139-1.111,1.012-.346-.149Zm.06,3.537-.063-3.1-2.3,2.087Z" transform="translate(-1212.228 -174.716)" fill="#1a1818"/>
        <path id="Path_16" data-name="Path 16" d="M1381.706,213.826,1382,214l.741,5.376,2.162-3.661.3.177-2.486,4.208-.234-.139-.755-5.489-2.209,3.739-.3-.177Z" transform="translate(-1306.478 -207.734)" fill="#1a1818"/>
        <path id="Path_17" data-name="Path 17" d="M1469.391,273.714l1.285,1a2.893,2.893,0,0,1,.717.79,2.484,2.484,0,0,1,.336.91,2.286,2.286,0,0,1-.051.937,2.427,2.427,0,0,1-.439.874l-.008.011a2.455,2.455,0,0,1-.74.646,2.275,2.275,0,0,1-.9.285,2.527,2.527,0,0,1-.968-.1,2.839,2.839,0,0,1-.946-.5l-1.285-1Zm-1.509,4.6a2.463,2.463,0,0,0,.829.435,2.069,2.069,0,0,0,.826.074,2,2,0,0,0,.758-.254,2.145,2.145,0,0,0,.629-.554l.008-.011a2.145,2.145,0,0,0,.378-.744,2.024,2.024,0,0,0,.062-.8,2.085,2.085,0,0,0-.273-.788,2.42,2.42,0,0,0-.625-.7l-1-.774-2.593,3.343Z" transform="translate(-1388.642 -264.18)" fill="#1a1818"/>
        <path id="Path_18" data-name="Path 18" d="M1580.866,378.626l1.2,1.31a2.52,2.52,0,0,1,.422.612,1.7,1.7,0,0,1,.169.621,1.323,1.323,0,0,1-.094.591,1.439,1.439,0,0,1-.377.524l-.01.009a1.4,1.4,0,0,1-1.245.365,1.84,1.84,0,0,1-.626-.251,2.664,2.664,0,0,1-.564-.473l-.889-.975-1.346,1.228-.245-.268Zm-.874,3.1a2.152,2.152,0,0,0,.481.4,1.421,1.421,0,0,0,.5.19,1.122,1.122,0,0,0,.492-.028,1.1,1.1,0,0,0,.443-.253l.01-.01a1.159,1.159,0,0,0,.308-.428,1.014,1.014,0,0,0,.068-.473,1.4,1.4,0,0,0-.149-.5,2.188,2.188,0,0,0-.348-.5l-.932-1.021-1.78,1.623Z" transform="translate(-1493.129 -363.061)" fill="#1a1818"/>
        <path id="Path_19" data-name="Path 19" d="M1636.46,478.14l.2.284-2.674,4.718-.232-.323.75-1.3-1.68-2.343-1.474.292-.22-.306Zm-1.775,3.06,1.549-2.692-3.05.6Z" transform="translate(-1543.91 -456.854)" fill="#1a1818"/>
        <path id="Path_20" data-name="Path 20" d="M1700.243,554.815a2.738,2.738,0,0,1-.342-1.02,3.251,3.251,0,0,1,.071-1.081l.353.076a3.51,3.51,0,0,0-.09.509,2.24,2.24,0,0,0,.1.914,2.614,2.614,0,0,0,.2.462,1.649,1.649,0,0,0,.308.4,1.191,1.191,0,0,0,.367.244.938.938,0,0,0,.391.071.844.844,0,0,0,.383-.108l.012-.007a.964.964,0,0,0,.276-.221.671.671,0,0,0,.139-.325,1.59,1.59,0,0,0-.006-.479,4.406,4.406,0,0,0-.17-.688,4.762,4.762,0,0,1-.179-.763,1.869,1.869,0,0,1,0-.588.983.983,0,0,1,.192-.438,1.275,1.275,0,0,1,.389-.32l.012-.007a1.1,1.1,0,0,1,.5-.142,1.285,1.285,0,0,1,.516.089,1.546,1.546,0,0,1,.479.3,1.93,1.93,0,0,1,.39.5,2.6,2.6,0,0,1,.317.874,2.754,2.754,0,0,1-.024.879l-.362-.063a2.1,2.1,0,0,0-.225-1.544,1.54,1.54,0,0,0-.3-.395,1.21,1.21,0,0,0-.357-.233.875.875,0,0,0-.373-.069.786.786,0,0,0-.352.1l-.012.007a.985.985,0,0,0-.28.223.687.687,0,0,0-.146.328,1.543,1.543,0,0,0,.007.495,4.986,4.986,0,0,0,.174.718,2.812,2.812,0,0,1,.165,1.313,1.061,1.061,0,0,1-.565.744l-.012.007a1.208,1.208,0,0,1-.533.156,1.258,1.258,0,0,1-.531-.088,1.569,1.569,0,0,1-.485-.314A2.079,2.079,0,0,1,1700.243,554.815Z" transform="translate(-1608.707 -525.815)" fill="#1a1818"/>
        <path id="Path_21" data-name="Path 21" d="M1746.2,624.406l-.664-1.569.3-.128,1.469,3.472-.3.128-.664-1.569-4.2,1.776-.141-.334Z" transform="translate(-1648.403 -593.113)" fill="#1a1818"/>
        <path id="Path_22" data-name="Path 22" d="M1769.387,716.639l.583,1.968a2.314,2.314,0,0,1,.1.807,1.574,1.574,0,0,1-.176.649,1.258,1.258,0,0,1-.314.377,1.284,1.284,0,0,1-.451.235l-.013,0a1.324,1.324,0,0,1-.556.052,1.243,1.243,0,0,1-.483-.17,1.541,1.541,0,0,1-.4-.355,2.3,2.3,0,0,1-.305-.5l-1.544,2.139-.131-.442,1.5-2.067,0-.013-.45-1.52-1.941.574-.1-.348Zm-1.86,2.647a2.011,2.011,0,0,0,.235.524,1.373,1.373,0,0,0,.339.369,1.05,1.05,0,0,0,.42.185,1,1,0,0,0,.484-.03l.013,0a.942.942,0,0,0,.648-.574,1.647,1.647,0,0,0-.019-1.076l-.474-1.6-2.115.626Z" transform="translate(-1669.799 -681.643)" fill="#1a1818"/>
        <path id="Path_23" data-name="Path 23" d="M1796.286,811.459l2.555-2.565.077.447-2.277,2.248,2.9,1.365.073.427-3.259-1.565-1.913.329-.062-.358Z" transform="translate(-1697.772 -768.595)" fill="#1a1818"/>
      </g>
    </g>
    <g id="Group_4" data-name="Group 4" transform="translate(125.499 189.356)">
      <g id="Group_3" data-name="Group 3" transform="translate(0)">
        <path id="Path_24" data-name="Path 24" d="M321.159,1525.685l.234.25-.769,3.408,3.451-.543.234.25-3.567,3.34-.248-.265,3.1-2.9-3.376.511-.019-.021.732-3.334-3.1,2.9-.239-.255Z" transform="translate(-317.592 -1525.685)" fill="#1a1818"/>
        <path id="Path_25" data-name="Path 25" d="M417.031,1622.946a2.376,2.376,0,0,1-.9-1.713,2.453,2.453,0,0,1,.122-.933,2.64,2.64,0,0,1,.47-.851l.009-.01a2.622,2.622,0,0,1,.745-.631,2.544,2.544,0,0,1,.9-.309,2.37,2.37,0,0,1,.951.061,2.454,2.454,0,0,1,1.814,2.194,2.461,2.461,0,0,1-.122.933,2.641,2.641,0,0,1-.47.851c0,.007,0,.01-.009.011a2.621,2.621,0,0,1-.745.631,2.535,2.535,0,0,1-.9.309,2.36,2.36,0,0,1-.954-.063A2.429,2.429,0,0,1,417.031,1622.946Zm.218-.245a2,2,0,0,0,1.559.448,2.132,2.132,0,0,0,.772-.266,2.341,2.341,0,0,0,.658-.562l.009-.011a2.326,2.326,0,0,0,.419-.762,2.182,2.182,0,0,0,.106-.814,2.049,2.049,0,0,0-.213-.782,2.039,2.039,0,0,0-2.1-1.113,2.14,2.14,0,0,0-.772.266,2.35,2.35,0,0,0-.658.563l-.009.011a2.327,2.327,0,0,0-.419.762,2.177,2.177,0,0,0-.106.814,2.041,2.041,0,0,0,.213.782A2,2,0,0,0,417.249,1622.7Z" transform="translate(-410.462 -1613.141)" fill="#1a1818"/>
        <path id="Path_26" data-name="Path 26" d="M499.232,1671.4l1.381.86a2.894,2.894,0,0,1,.794.713,2.483,2.483,0,0,1,.428.871,2.286,2.286,0,0,1,.045.937,2.427,2.427,0,0,1-.348.914l-.007.012a2.453,2.453,0,0,1-.669.718,2.28,2.28,0,0,1-.863.375,2.523,2.523,0,0,1-.972,0,2.835,2.835,0,0,1-.991-.4l-1.381-.86Zm-1.03,4.729a2.466,2.466,0,0,0,.869.348,2.069,2.069,0,0,0,.83-.011,2,2,0,0,0,.728-.33,2.142,2.142,0,0,0,.569-.616l.007-.012a2.152,2.152,0,0,0,.3-.779,2.026,2.026,0,0,0-.021-.805,2.082,2.082,0,0,0-.352-.756,2.419,2.419,0,0,0-.693-.63l-1.073-.668-2.237,3.591Z" transform="translate(-486.355 -1663.024)" fill="#1a1818"/>
        <path id="Path_27" data-name="Path 27" d="M593.575,1722.6l3.143,1.487-.14.3-2.815-1.332-.827,1.748,2.531,1.2-.14.3-2.531-1.2-.842,1.78,2.846,1.346-.14.3-3.174-1.5Z" transform="translate(-575.74 -1711.276)" fill="#1a1818"/>
        <path id="Path_28" data-name="Path 28" d="M680.967,1758.32l1.942.666a2.316,2.316,0,0,1,.718.382,1.568,1.568,0,0,1,.427.519,1.26,1.26,0,0,1,.125.475,1.282,1.282,0,0,1-.069.5l0,.013a1.322,1.322,0,0,1-.28.483,1.244,1.244,0,0,1-.419.3,1.546,1.546,0,0,1-.521.12,2.29,2.29,0,0,1-.587-.043l.849,2.5-.436-.149-.816-2.42-.013,0-1.5-.514-.656,1.915-.344-.118Zm1.08,3.049a2,2,0,0,0,.563.112,1.375,1.375,0,0,0,.5-.062,1.053,1.053,0,0,0,.394-.235,1.007,1.007,0,0,0,.256-.412l0-.013a.942.942,0,0,0-.092-.861,1.647,1.647,0,0,0-.888-.608l-1.578-.541-.715,2.087Z" transform="translate(-658.585 -1744.947)" fill="#1a1818"/>
        <path id="Path_29" data-name="Path 29" d="M778.726,1786.961l.335.071,2.413,4.861.885-4.159.342.073-1.018,4.78-.266-.056-2.462-4.964-.9,4.247-.341-.073Z" transform="translate(-751.258 -1771.942)" fill="#1a1818"/>
        <path id="Path_30" data-name="Path 30" d="M931.889,1855.191l1.868.111-.023.39-1.868-.111Z" transform="translate(-896.555 -1836.249)" fill="#1a1818"/>
        <path id="Path_31" data-name="Path 31" d="M1040.689,1811.917a2.377,2.377,0,0,1-1.843-.588,2.455,2.455,0,0,1-.568-.75,2.64,2.64,0,0,1-.263-.936v-.014a2.631,2.631,0,0,1,.088-.972,2.54,2.54,0,0,1,.422-.849,2.367,2.367,0,0,1,.72-.625,2.454,2.454,0,0,1,2.832.289,2.46,2.46,0,0,1,.568.75,2.642,2.642,0,0,1,.263.936.009.009,0,0,1,0,.014,2.615,2.615,0,0,1-.088.972,2.539,2.539,0,0,1-.422.849,2.362,2.362,0,0,1-.723.625A2.43,2.43,0,0,1,1040.689,1811.917Zm-.017-.328a2,2,0,0,0,1.424-.775,2.137,2.137,0,0,0,.363-.732,2.346,2.346,0,0,0,.073-.862v-.014a2.329,2.329,0,0,0-.236-.837,2.184,2.184,0,0,0-.5-.655,2.048,2.048,0,0,0-.7-.407,2.04,2.04,0,0,0-2.275.679,2.142,2.142,0,0,0-.363.731,2.345,2.345,0,0,0-.073.863v.014a2.325,2.325,0,0,0,.236.837,2.177,2.177,0,0,0,.5.655,2.044,2.044,0,0,0,.7.408A2,2,0,0,0,1040.672,1811.589Z" transform="translate(-996.589 -1790.707)" fill="#1a1818"/>
        <path id="Path_32" data-name="Path 32" d="M1145.556,1791.434l2-.443a2.312,2.312,0,0,1,.812-.047,1.564,1.564,0,0,1,.635.221,1.258,1.258,0,0,1,.354.34,1.285,1.285,0,0,1,.2.466l0,.014a1.32,1.32,0,0,1,.013.558,1.247,1.247,0,0,1-.2.47,1.548,1.548,0,0,1-.382.374,2.288,2.288,0,0,1-.523.269l2.025,1.69-.45.1-1.957-1.641-.014,0-1.547.342.437,1.977-.354.078Zm2.51,2.041a2,2,0,0,0,.539-.2,1.368,1.368,0,0,0,.392-.312,1.05,1.05,0,0,0,.214-.406,1,1,0,0,0,0-.485l0-.013a.943.943,0,0,0-.527-.687,1.647,1.647,0,0,0-1.074-.057l-1.629.36.476,2.154Z" transform="translate(-1097.961 -1775.679)" fill="#1a1818"/>
        <path id="Path_33" data-name="Path 33" d="M1237.736,1775.046l.347-.108,1.447,4.668-.347.107Z" transform="translate(-1184.842 -1760.61)" fill="#1a1818"/>
        <path id="Path_34" data-name="Path 34" d="M1274.847,1743.852l3.229-1.289.122.3-2.892,1.154.717,1.8,2.6-1.038.122.3-2.6,1.038.73,1.829,2.924-1.167.122.3-3.261,1.3Z" transform="translate(-1219.82 -1730.096)" fill="#1a1818"/>
        <path id="Path_35" data-name="Path 35" d="M1354.854,1699.874l.3-.163,4.989,2.134-2.024-3.739.307-.166,2.326,4.3-.239.129-5.094-2.181,2.067,3.819-.307.166Z" transform="translate(-1295.227 -1688.038)" fill="#1a1818"/>
        <path id="Path_36" data-name="Path 36" d="M1439.449,1648.767l-1.4.976-.188-.269,3.09-2.16.188.269-1.4.976,2.612,3.736-.3.208Z" transform="translate(-1373.467 -1640.322)" fill="#1a1818"/>
        <path id="Path_37" data-name="Path 37" d="M1534.853,1606.56l.262-.231,4.965,2.181-.3.264-1.372-.614-2.161,1.91.44,1.437-.282.25Zm3.224,1.455-2.835-1.268.9,2.974Z" transform="translate(-1464.879 -1601.693)" fill="#1a1818"/>
        <path id="Path_38" data-name="Path 38" d="M1585.467,1558.968l.243-.269,3.38,3.06,1.926-2.127.243.22-2.17,2.4Z" transform="translate(-1512.584 -1556.801)" fill="#1a1818"/>
      </g>
    </g>
    <g id="Group_6" data-name="Group 6" transform="translate(133.204 126.383)">
      <g id="Group_5" data-name="Group 5" transform="translate(0 0)">
        <path id="Path_39" data-name="Path 39" d="M513.447,483.37a5.659,5.659,0,0,0-2.141-.793,15.276,15.276,0,0,0-2.736-.237h-2.663a.123.123,0,0,1-.113-.174q.458-1.006,1.149-2.68.752-1.825,1.547-3.768t1.468-3.647a12.982,12.982,0,0,0,.912-2.416c.131-.605-.3-2.255-1.817-2.1-1.483.154-2.812,1.02-3.694,5.029-.266,1.212-1.375,2.247-2.458,3.41a19.921,19.921,0,0,1-3.766,3.131,9.943,9.943,0,0,1-4.362,1.627,4.166,4.166,0,0,1-2.854-.438,3.458,3.458,0,0,1-1.426-1.824,7.132,7.132,0,0,1-.317-2.7,13.362,13.362,0,0,1,.516-3.053,18.264,18.264,0,0,1,1.109-2.894,12.012,12.012,0,0,1,1.316-2.171.312.312,0,0,1,.184-.112,36.99,36.99,0,0,0,9.482-3.148,31.415,31.415,0,0,0,6.7-4.441,17.831,17.831,0,0,0,3.924-4.758,9.016,9.016,0,0,0,1.269-4.043,3.219,3.219,0,0,0-1.466-3.013,6.318,6.318,0,0,0-3.292-.872,10.605,10.605,0,0,0-4.718,1.149,22.418,22.418,0,0,0-4.441,2.894,34.763,34.763,0,0,0-4,3.924,50.262,50.262,0,0,0-3.37,4.282q-1.469,2.1-2.537,3.844-1.035,1.684-1.513,2.558a.118.118,0,0,1-.1.061,3.271,3.271,0,0,0-.408.038,2.385,2.385,0,0,1-.4.04c-1.056,0-2.238-.41-2.365-1.083-.226-1.187.548-2.828.861-4,.006-.025.313-.952.423-1.263q.835-2.336,1.982-5.31t2.418-6.146q1.266-3.174,2.221-5.551.552-1.5,1.189-3.171a7.09,7.09,0,0,0,.474-3.252,2.647,2.647,0,0,0-1.03-1.783,3.041,3.041,0,0,0-2.02-.635,4.736,4.736,0,0,0-2.418.874,6.794,6.794,0,0,0-2.221,2.735q-2.218,4.36-3.766,7.532t-2.7,5.549q-1.152,2.38-2.1,4.166a27.99,27.99,0,0,1-1.984,3.209,2.447,2.447,0,0,1,.159-.554,2.4,2.4,0,0,0,.159-.473l0-.011q.793-1.666,1.86-4.352t2.063-5.352q.99-2.656,1.743-4.8t.99-2.7a3.584,3.584,0,0,0,.2-2.5,3.313,3.313,0,0,0-1.269-1.862,2.847,2.847,0,0,0-2.219-.4,4.911,4.911,0,0,0-2.657,1.743,22.525,22.525,0,0,0-1.864,2.378q-.993,1.428-1.982,2.894t-1.942,2.934q-.952,1.469-1.745,2.5l-.178.252a.314.314,0,0,1-.548-.3l.013-.032q.635-1.587,1.229-3.489a32.34,32.34,0,0,0,.952-3.886,16.813,16.813,0,0,0,.277-3.713c0-.008,0-.017,0-.023a7.941,7.941,0,0,0-.673-2.647,5.277,5.277,0,0,0-1.307-1.743,5.648,5.648,0,0,0-1.824-1.03,11.58,11.58,0,0,0-2.141-.516,8.918,8.918,0,0,0-4.718.753,15.02,15.02,0,0,0-4.836,3.33A19.791,19.791,0,0,0,453.3,440a18.408,18.408,0,0,0-1.665,7.563,5.631,5.631,0,0,0,.381,1.665s0,.008,0,.013l.025.061a.332.332,0,0,0,.017.04,5.452,5.452,0,0,1,.463,3.542c-.332,2.577,3.493,3.332,4.989,2.12s2.568-5.251-.613-5.706a11.371,11.371,0,0,1-1.539-.313,2.352,2.352,0,0,1-1.6-2.232,9.7,9.7,0,0,1,.175-1.481,19.123,19.123,0,0,1,1.506-4.441,21.573,21.573,0,0,1,2.7-4.362,14.748,14.748,0,0,1,3.489-3.209,6.294,6.294,0,0,1,3.965-1.073,2.459,2.459,0,0,1,2.221,1.191,7.025,7.025,0,0,1,.317,3.25,29.774,29.774,0,0,1-1.587,7.97q-1.428,4.322-3.093,8.405c-1.111,2.723-1.91,5.314-2.972,7.532-1.1,2.291-4.089,6.745-1.788,8.088,3.808,2.221,4.915-4.4,5.911-7.295.882-2.56,2.655-5.272,4.559-8.443q1.187-1.9,2.577-4.085t2.776-4.28q1.384-2.1,2.7-3.886a32.925,32.925,0,0,1,2.418-2.972q.555-.555.912-.476c.239.053.25.451.038,1.189a50.577,50.577,0,0,1-1.783,5.471q-1.228,3.253-2.418,6.264l-2.854,7.927a3.1,3.1,0,0,0-.239,1.231,2.463,2.463,0,0,0,.279,1.189,2.281,2.281,0,0,0,.872.872,2.934,2.934,0,0,0,1.53.355h.032a2.129,2.129,0,0,0,1.849-.95q.514-.87,1.149-1.982,1.111-1.983,2.5-4.758t2.814-5.63q1.428-2.853,2.7-5.549t2.219-4.519a5.713,5.713,0,0,1,1.111-1.667,2.4,2.4,0,0,1,1.03-.713c.262-.053.421.133.474.554a5.351,5.351,0,0,1-.474,2.142,14.577,14.577,0,0,0-.675,1.7q-.593,1.625-1.546,4.045t-2.021,5.312q-1.073,2.894-2.023,5.509-.6,1.653-1.092,3.085-.286.835-.533,1.6a18.885,18.885,0,0,0-.743,2.693.574.574,0,0,0-.011.08,3.716,3.716,0,0,0,.057,1.187,4.07,4.07,0,0,0,.366,1.047c.059.116.123.229.186.33l0,.008c.021.04.044.083.07.123a4.544,4.544,0,0,0,1.307,1.39,5.573,5.573,0,0,0,2.456.872l.717.152a.314.314,0,0,1,.216.446,19.785,19.785,0,0,0-1.407,3.762,14.47,14.47,0,0,0-.476,3.489q0,3.567,2.063,5.194a7.923,7.923,0,0,0,5.073,1.625,12.346,12.346,0,0,0,5.353-1.109,18.6,18.6,0,0,0,3.421-2.122.314.314,0,0,1,.487.357q-.035.1-.063.178c-.106.317-.2.609-.277.874a8.992,8.992,0,0,1-.315.872c-.121.286-.294.681-.52,1.183a.321.321,0,0,1-.256.184q-1.488.152-2.833.417a8.76,8.76,0,0,0-2.219.675,11.168,11.168,0,0,0-3.726,2.577,7.363,7.363,0,0,0-1.826,3.844,6.036,6.036,0,0,0,.08,2.181,4.757,4.757,0,0,0,.872,1.9,3.75,3.75,0,0,0,1.665,1.231,4.267,4.267,0,0,0,2.458.078,6.119,6.119,0,0,0,3.013-1.547,18.17,18.17,0,0,0,2.537-2.894,25.611,25.611,0,0,0,2.143-3.609q.9-1.844,1.661-3.58a.313.313,0,0,1,.283-.186c.461,0,.922-.015,1.384-.04q.793-.038,1.587-.038,3.805-.162,4.559,1.307t-1.856,3.287q-.721.4-.761.8a.682.682,0,0,0,.118.556.71.71,0,0,0,.715.118,3.473,3.473,0,0,0,1.03-.476,7.756,7.756,0,0,0,1.07-.831,3.414,3.414,0,0,0,.753-.952,4.236,4.236,0,0,0,.594-2.577A2.339,2.339,0,0,0,513.447,483.37Zm-19.121-17.856q1-1.622,2.708-4.068a59.263,59.263,0,0,1,4.479-5.63,41.817,41.817,0,0,1,5-4.758,7.713,7.713,0,0,1,4.6-2.02,2.466,2.466,0,0,1,.711.078,1.851,1.851,0,0,1,1.269,1.9,7.83,7.83,0,0,1-1.388,3.647,21.666,21.666,0,0,1-3.924,4.637,30.824,30.824,0,0,1-6.065,4.282,21.62,21.62,0,0,1-7.066,2.4A.314.314,0,0,1,494.326,465.514Zm6.15,19.176q-1.691,3.63-3.245,6.292-1.663,2.853-2.774,3.171a1.823,1.823,0,0,1-1.982-.595,3.231,3.231,0,0,1-.556-2.655,7.486,7.486,0,0,1,5.154-6.027,6.82,6.82,0,0,1,1.547-.4c.489-.08,1-.156,1.525-.235A.316.316,0,0,1,500.477,484.69Z" transform="translate(-451.631 -430.213)" fill="#c5491a"/>
      </g>
      <path id="Path_40" data-name="Path 40" d="M719.114,447.948a15.857,15.857,0,0,0,.248-3.325c0-.007,0-.014,0-.021a7.134,7.134,0,0,0-.6-2.368,5.108,5.108,0,0,0-1.171-1.562,5,5,0,0,0-1.632-1.064,3.225,3.225,0,0,0-1.917-.321c-.1.037-.043.127.085.147a4.289,4.289,0,0,1,3.319,2.265c1.524,2.363.276,5.651.465,6.249C718.259,449.061,718.712,450.33,719.114,447.948Z" transform="translate(-698.907 -438.713)" fill="#fff" opacity="0.9"/>
      <path id="Path_41" data-name="Path 41" d="M996.328,531.022a2.694,2.694,0,0,0,.15-1.879,2.489,2.489,0,0,0-.954-1.4l-.014-.01c-.248-.169-.5-.236-.3-.017a2.229,2.229,0,0,1,.571.821c.384,2.031-.5,2.14-.318,3.109.036.192.088.686.168.693C995.967,532.368,996.328,531.022,996.328,531.022Z" transform="translate(-963.894 -521.98)" fill="#fff" opacity="0.9"/>
      <path id="Path_42" data-name="Path 42" d="M1164.5,503.574c1.626.116,2.068,1.292,2,2.607s-1.7,3.331-1.649,3.683c.153,1.094-.207,1.616.238,1.269a1.782,1.782,0,0,0,.658-.864q.432-1.177.929-2.478a5.527,5.527,0,0,0,.372-2.54,2.248,2.248,0,0,0-2.385-1.889C1164.27,503.423,1164.4,503.567,1164.5,503.574Z" transform="translate(-1123.424 -499.139)" fill="#fff" opacity="0.9"/>
      <path id="Path_43" data-name="Path 43" d="M1517.676,756.061a8,8,0,0,0,1.085-3.459,2.752,2.752,0,0,0-1.254-2.577.2.2,0,0,0,.044.259,2.508,2.508,0,0,1,.751,2.754,8.37,8.37,0,0,1-.947,2.332C1517.375,755.938,1517.48,756.442,1517.676,756.061Z" transform="translate(-1456.092 -731.642)" fill="#fff" opacity="0.9"/>
      <path id="Path_44" data-name="Path 44" d="M575.691,959.027c2.533,2.424,3.908-3.5,4.7-5.8,0,0,1.074-2.93.377-1.578-.213.413-.824,1.222-1.6,2.75-.339.665-1.082,3.06-2.289,4.08C576.083,959.146,575.236,958.591,575.691,959.027Z" transform="translate(-568.439 -921.335)" fill="#fff" opacity="0.9"/>
      <circle id="Ellipse_3" data-name="Ellipse 3" cx="1.87" cy="1.87" r="1.87" transform="translate(54.509 58.731)" fill="#c5491a"/>
      <path id="Path_45" data-name="Path 45" d="M856.224,932.734a2.44,2.44,0,0,0,.988.23h.02a1.374,1.374,0,0,0,1.194-.614q.332-.562.743-1.28s.193-.3.09-.281-.176.108-.441.463a2.763,2.763,0,0,1-1.475.99,7.786,7.786,0,0,0-.842.144C856.213,932.442,855.868,932.583,856.224,932.734Z" transform="translate(-832.823 -902.012)" fill="#fff" opacity="0.9"/>
      <path id="Path_46" data-name="Path 46" d="M1443.37,1091.151a10.267,10.267,0,0,0,.726-1.925c.1-.481-.238-1.8-1.447-1.669,0,0-.114.116.445.338.768.3.6,1.265.4,1.7-.765,1.74-.787,1.269-1.2,2.289-.256.641.039,1.768.255,1.27S1443.37,1091.151,1443.37,1091.151Z" transform="translate(-1385.261 -1049.762)" fill="#fff" opacity="0.9"/>
      <path id="Path_47" data-name="Path 47" d="M1099.285,1299.384a7.086,7.086,0,0,0,4.392,1.406,12.677,12.677,0,0,0,4.469-.885c.193-.072.327-.088.406-.218.064-.1.085-.233-.1-.147a12.415,12.415,0,0,1-3.718.986,5.4,5.4,0,0,1-3.029-.432c-.88-.339-1.031-.94-2.167-.994C1099.077,1299.079,1099.041,1299.2,1099.285,1299.384Z" transform="translate(-1061.915 -1249.151)" fill="#fff" opacity="0.9"/>
      <path id="Path_48" data-name="Path 48" d="M1148.865,1534.036a3.935,3.935,0,0,0,1.517,1.121,3.881,3.881,0,0,0,2.241.072,5.573,5.573,0,0,0,2.747-1.41s.424-.421.132-.213a5.086,5.086,0,0,1-2.928,1.428,3.916,3.916,0,0,1-3.06-1C1149.3,1533.878,1148.51,1533.639,1148.865,1534.036Z" transform="translate(-1108.699 -1470.123)" fill="#fff" opacity="0.9"/>
      <path id="Path_49" data-name="Path 49" d="M1522.2,1366.141a3.233,3.233,0,0,0,.442-1.912,1.734,1.734,0,0,0-.766-1.148s-.422-.163-.129.024c.712.454.844,1.33.21,2.542C1521.823,1365.9,1522.111,1366.321,1522.2,1366.141Z" transform="translate(-1460.131 -1309.393)" fill="#fff" opacity="0.9"/>
      <path id="Path_50" data-name="Path 50" d="M1483.729,1440.29" transform="translate(-1424.399 -1382.226)" fill="none" stroke="#1a1818" stroke-miterlimit="10" stroke-width="1"/>
      <path id="Path_51" data-name="Path 51" d="M1433.272,1462.155a1.258,1.258,0,0,0-1.258-1.258s-.4.162.229.44a1.409,1.409,0,0,1,.841.878C1433.207,1462.478,1433.272,1462.155,1433.272,1462.155Z" transform="translate(-1375.541 -1401.649)" fill="#fff" opacity="0.9"/>
      <path id="Path_52" data-name="Path 52" d="M520.854,772.427c1.158-.94,1.989-4.065-.475-4.418a8.84,8.84,0,0,1-1.191-.243s-.387-.14-.227.051c.173.208.813.206,1.368.638,1.065.827.612,2.482.306,3.213s-.544,1.122-.255,1.02A1.614,1.614,0,0,0,520.854,772.427Z" transform="translate(-515.054 -748.316)" fill="#fff" opacity="0.9"/>
    </g>
    <path id="Path_53" data-name="Path 53" d="M319.265,1518.732" transform="translate(-193.67 -1329.776)" fill="none" stroke="#1a1818" stroke-miterlimit="10" stroke-width="2"/>
    <path id="Path_54" data-name="Path 54" d="M1680.733,1518.734" transform="translate(-1476.875 -1329.778)" fill="none" stroke="#1a1818" stroke-miterlimit="10" stroke-width="2"/>
    <path id="Path_55" data-name="Path 55" d="M1701.019,1028.074l-.523-.36a48.6,48.6,0,0,0,8.61-27.713h.635A49.231,49.231,0,0,1,1701.019,1028.074Z" transform="translate(-1495.502 -840.863)" fill="#1a1818"/>
    <path id="Path_56" data-name="Path 56" d="M1000,144.194" transform="translate(-835.273 -34.253)" fill="none" stroke="#1a1818" stroke-miterlimit="10" stroke-width="2"/>
    <path id="Path_57" data-name="Path 57" d="M147.411,1028.1a49.229,49.229,0,0,1-8.738-28.1h.635a48.6,48.6,0,0,0,8.625,27.735Z" transform="translate(-23.459 -840.863)" fill="#1a1818"/>
  </g>
</svg>
